<svg width="886" height="623" viewBox="0 0 886 623" fill="none" xmlns="http://www.w3.org/2000/svg">
<g id="park">
<g clip-path="url(#clip0)">
<g id="lamp">
<path id="Vector" d="M484.299 300.014H468.509V315.803H475.829V369.007H477.803V315.803H484.299V300.014Z" fill="#3F3D56"/>
</g>
<g id="bench">
<path id="Vector_2" d="M461.601 348.37H400.416V350.344H409.958V369.094H411.932V350.344H449.098V369.094H451.072V350.344H461.601V348.37Z" fill="#3F3D56"/>
<path id="Vector_3" d="M461.722 342.465H400.536V344.439H461.722V342.465Z" fill="#3F3D56"/>
<path id="Vector_4" d="M461.722 337.531H400.536V339.504H461.722V337.531Z" fill="#3F3D56"/>
<path id="Vector_5" d="M461.722 332.596H400.536V334.57H461.722V332.596Z" fill="#3F3D56"/>
</g>
<g id="rainbow">
<path id="Vector_6" d="M618.512 374.783H616.538C616.538 281.187 540.393 205.043 446.798 205.043C353.203 205.043 277.058 281.187 277.058 374.783H275.085C275.085 280.099 352.115 203.069 446.798 203.069C541.482 203.069 618.512 280.099 618.512 374.783Z" fill="#3F3D56"/>
</g>
<g id="tree1__up">
<path id="Vector_7" d="M161.352 322.704C250.464 322.704 322.704 250.464 322.704 161.352C322.704 72.2397 250.464 0 161.352 0C72.2397 0 0 72.2397 0 161.352C0 250.464 72.2397 322.704 161.352 322.704Z" fill="#FFD663"/>
<path id="Vector_8" opacity="0.2" d="M281.375 53.5815C296.426 88.7873 298.467 128.198 287.136 164.77C275.804 201.343 251.836 232.694 219.517 253.223C187.197 273.751 148.631 282.118 110.71 276.829C72.7894 271.54 37.9847 252.94 12.5155 224.351C21.7095 245.861 35.4699 265.114 52.8435 280.777C70.217 296.441 90.7882 308.139 113.132 315.063C135.476 321.987 159.057 323.97 182.244 320.875C205.43 317.78 227.666 309.682 247.412 297.14C267.157 284.598 283.94 267.914 296.597 248.242C309.254 228.57 317.483 206.382 320.714 183.214C323.945 160.047 322.1 136.454 315.307 114.07C308.514 91.686 296.936 71.0465 281.375 53.5815V53.5815Z" fill="black"/>
</g>
<g id="tree1__down">
<path id="Vector_9" d="M161.795 161.352H162.238L170.217 618.811H153.373L161.795 161.352Z" fill="#3F3D56"/>
<path id="Vector_10" d="M191.174 410.527L187.457 403.467L160.785 417.509L164.502 424.569L191.174 410.527Z" fill="#3F3D56"/>
</g>
<g id="tree2__up">
<path id="Vector_11" d="M755.276 360.4C827.401 360.4 885.87 301.931 885.87 229.806C885.87 157.682 827.401 99.2128 755.276 99.2128C683.152 99.2128 624.683 157.682 624.683 229.806C624.683 301.931 683.152 360.4 755.276 360.4Z" fill="#FFD663"/>
<path id="Vector_12" opacity="0.2" d="M852.42 142.58C864.601 171.075 866.254 202.972 857.082 232.573C847.911 262.174 828.512 287.549 802.354 304.164C776.195 320.779 744.981 327.551 714.289 323.27C683.597 318.99 655.427 303.935 634.813 280.796C642.254 298.205 653.391 313.788 667.453 326.466C681.515 339.143 698.164 348.612 716.249 354.216C734.333 359.82 753.42 361.425 772.186 358.92C790.952 356.415 808.949 349.86 824.931 339.709C840.912 329.559 854.496 316.054 864.74 300.133C874.984 284.211 881.645 266.253 884.26 247.501C886.874 228.75 885.381 209.655 879.883 191.538C874.386 173.421 865.015 156.716 852.42 142.58V142.58Z" fill="black"/>
</g>
<g id="tree2__down">
<path id="Vector_13" d="M755.635 229.806H755.994L762.452 600.06H748.819L755.635 229.806Z" fill="#3F3D56"/>
<path id="Vector_14" d="M779.414 431.482L776.406 425.767L754.818 437.133L757.826 442.847L779.414 431.482Z" fill="#3F3D56"/>
</g>
<g id="tree4__up">
<path id="Vector_15" d="M369.907 342.262C381.261 342.262 390.466 333.058 390.466 321.704C390.466 310.35 381.261 301.145 369.907 301.145C358.553 301.145 349.349 310.35 349.349 321.704C349.349 333.058 358.553 342.262 369.907 342.262Z" fill="#FFD663"/>
<path id="Vector_16" opacity="0.2" d="M385.2 307.972C387.118 312.458 387.378 317.479 385.934 322.139C384.49 326.799 381.436 330.794 377.318 333.409C373.2 336.025 368.287 337.091 363.455 336.417C358.623 335.743 354.189 333.373 350.944 329.731C352.115 332.471 353.868 334.924 356.082 336.92C358.295 338.916 360.917 340.406 363.763 341.289C366.61 342.171 369.615 342.423 372.569 342.029C375.523 341.635 378.357 340.603 380.873 339.005C383.388 337.407 385.527 335.281 387.139 332.775C388.752 330.268 389.801 327.441 390.212 324.489C390.624 321.537 390.389 318.531 389.523 315.679C388.658 312.827 387.183 310.198 385.2 307.972V307.972Z" fill="black"/>
</g>
<g id="tree4__down">
<path id="Vector_17" d="M369.964 321.704H370.02L371.037 379.99H368.891L369.964 321.704Z" fill="#3F3D56"/>
<path id="Vector_18" d="M373.707 353.452L373.233 352.553L369.835 354.342L370.309 355.241L373.707 353.452Z" fill="#3F3D56"/>
</g>
<g id="tree3__up">
<path id="Vector_19" d="M559.878 308.074C588.946 308.074 612.509 284.511 612.509 255.443C612.509 226.375 588.946 202.812 559.878 202.812C530.81 202.812 507.247 226.375 507.247 255.443C507.247 284.511 530.81 308.074 559.878 308.074Z" fill="#FFD663"/>
<path id="Vector_20" opacity="0.2" d="M599.029 220.289C603.938 231.773 604.604 244.628 600.908 256.558C597.211 268.488 589.393 278.714 578.851 285.411C568.309 292.107 555.729 294.836 543.359 293.111C530.99 291.385 519.637 285.318 511.329 275.993C514.328 283.009 518.816 289.289 524.484 294.399C530.151 299.508 536.861 303.324 544.149 305.582C551.437 307.841 559.13 308.488 566.693 307.478C574.256 306.469 581.509 303.827 587.95 299.736C594.391 295.645 599.865 290.203 603.994 283.786C608.122 277.369 610.807 270.132 611.861 262.574C612.914 255.017 612.312 247.322 610.097 240.02C607.881 232.719 604.104 225.986 599.029 220.289V220.289Z" fill="black"/>
</g>
<g id="tree3__down">
<path id="Vector_21" d="M560.023 255.443H560.167L562.77 404.662H557.275L560.023 255.443Z" fill="#3F3D56"/>
<path id="Vector_22" d="M569.606 336.722L568.393 334.419L559.693 338.999L560.906 341.302L569.606 336.722Z" fill="#3F3D56"/>
</g>
<g id="flowers3">
<path id="Vector_23" d="M395.605 452.987C395.605 452.987 396.146 441.645 407.242 442.963Z" fill="#3F3D56"/>
<path id="Vector_24" d="M392.47 442.194C395.537 442.194 398.023 439.707 398.023 436.64C398.023 433.573 395.537 431.087 392.47 431.087C389.403 431.087 386.916 433.573 386.916 436.64C386.916 439.707 389.403 442.194 392.47 442.194Z" fill="#FFD663"/>
<path id="Vector_25" d="M393.134 445.992H391.566V456.965H393.134V445.992Z" fill="#3F3D56"/>
<path id="Vector_26" d="M405.474 482.593C405.474 482.593 406.015 471.251 417.111 472.569Z" fill="#3F3D56"/>
<path id="Vector_27" d="M402.338 471.8C405.405 471.8 407.892 469.313 407.892 466.246C407.892 463.179 405.405 460.693 402.338 460.693C399.271 460.693 396.785 463.179 396.785 466.246C396.785 469.313 399.271 471.8 402.338 471.8Z" fill="#FFD663"/>
<path id="Vector_28" d="M403.002 475.598H401.435V486.571H403.002V475.598Z" fill="#3F3D56"/>
<path id="Vector_29" d="M381.789 504.304C381.789 504.304 382.33 492.962 393.426 494.28Z" fill="#3F3D56"/>
<path id="Vector_30" d="M378.654 493.511C381.721 493.511 384.207 491.024 384.207 487.957C384.207 484.89 381.721 482.404 378.654 482.404C375.587 482.404 373.1 484.89 373.1 487.957C373.1 491.024 375.587 493.511 378.654 493.511Z" fill="#FFD663"/>
<path id="Vector_31" d="M379.318 497.309H377.75V508.282H379.318V497.309Z" fill="#3F3D56"/>
<path id="Vector_32" d="M326.525 460.882C326.525 460.882 327.066 449.54 338.162 450.858Z" fill="#3F3D56"/>
<path id="Vector_33" d="M323.389 450.089C326.457 450.089 328.943 447.602 328.943 444.535C328.943 441.468 326.457 438.982 323.389 438.982C320.322 438.982 317.836 441.468 317.836 444.535C317.836 447.602 320.322 450.089 323.389 450.089Z" fill="#FFD663"/>
<path id="Vector_34" d="M324.053 453.887H322.486V464.86H324.053V453.887Z" fill="#3F3D56"/>
</g>
<g id="flowers1">
<path id="Vector_35" d="M197.523 596.038C197.523 596.038 198.205 581.758 212.175 583.418Z" fill="#3F3D56"/>
<path id="Vector_36" d="M193.576 582.449C197.437 582.449 200.568 579.318 200.568 575.457C200.568 571.595 197.437 568.465 193.576 568.465C189.714 568.465 186.583 571.595 186.583 575.457C186.583 579.318 189.714 582.449 193.576 582.449Z" fill="#FFD663"/>
<path id="Vector_37" d="M194.412 587.231H192.438V601.047H194.412V587.231Z" fill="#3F3D56"/>
<path id="Vector_38" d="M246.866 563.471C246.866 563.471 247.548 549.192 261.518 550.851Z" fill="#3F3D56"/>
<path id="Vector_39" d="M242.919 549.882C246.78 549.882 249.911 546.752 249.911 542.89C249.911 539.029 246.78 535.898 242.919 535.898C239.057 535.898 235.927 539.029 235.927 542.89C235.927 546.752 239.057 549.882 242.919 549.882Z" fill="#FFD663"/>
<path id="Vector_40" d="M243.755 554.665H241.781V568.481H243.755V554.665Z" fill="#3F3D56"/>
<path id="Vector_41" d="M111.666 598.998C111.666 598.998 112.348 584.719 126.318 586.378Z" fill="#3F3D56"/>
<path id="Vector_42" d="M107.719 585.409C111.58 585.409 114.711 582.279 114.711 578.417C114.711 574.556 111.58 571.425 107.719 571.425C103.857 571.425 100.727 574.556 100.727 578.417C100.727 582.279 103.857 585.409 107.719 585.409Z" fill="#FFD663"/>
<path id="Vector_43" d="M108.555 590.192H106.581V604.008H108.555V590.192Z" fill="#3F3D56"/>
</g>
<g id="flowers2">
<path id="Vector_44" d="M791.613 595.051C791.613 595.051 792.295 580.771 806.265 582.431Z" fill="#3F3D56"/>
<path id="Vector_45" d="M787.666 581.462C791.528 581.462 794.658 578.332 794.658 574.47C794.658 570.608 791.528 567.478 787.666 567.478C783.804 567.478 780.674 570.608 780.674 574.47C780.674 578.332 783.804 581.462 787.666 581.462Z" fill="#FFD663"/>
<path id="Vector_46" d="M788.502 586.244H786.528V600.06H788.502V586.244Z" fill="#3F3D56"/>
<path id="Vector_47" d="M734.375 561.498C734.375 561.498 735.057 547.218 749.028 548.878Z" fill="#3F3D56"/>
<path id="Vector_48" d="M730.428 547.909C734.29 547.909 737.42 544.778 737.42 540.917C737.42 537.055 734.29 533.924 730.428 533.924C726.566 533.924 723.436 537.055 723.436 540.917C723.436 544.778 726.566 547.909 730.428 547.909Z" fill="#FFD663"/>
<path id="Vector_49" d="M731.264 552.691H729.29V566.507H731.264V552.691Z" fill="#3F3D56"/>
<path id="Vector_50" d="M726.481 611.828C726.481 611.828 727.162 597.548 741.133 599.208Z" fill="#3F3D56"/>
<path id="Vector_51" d="M722.533 598.239C726.395 598.239 729.525 595.108 729.525 591.246C729.525 587.385 726.395 584.254 722.533 584.254C718.671 584.254 715.541 587.385 715.541 591.246C715.541 595.108 718.671 598.239 722.533 598.239Z" fill="#FFD663"/>
<path id="Vector_52" d="M723.369 603.021H721.395V616.837H723.369V603.021Z" fill="#3F3D56"/>
</g>
<g id="road">
<path id="Vector_53" d="M123.026 622.485C123.026 622.485 433.888 540.575 430.927 456.692C425.499 433.501 387.999 427.58 387.999 427.58C387.999 427.58 299.181 415.737 347.537 387.118C395.893 358.499 528.133 365.407 528.133 365.407C528.133 365.407 391.946 387.118 452.145 398.961C500.501 401.921 562.673 414.75 562.673 414.75C562.673 414.75 688.991 441.396 706.755 506.529C724.518 571.661 709.715 621.991 709.715 621.991L123.026 622.485Z" fill="#E6E6E6"/>
<path id="Vector_54" d="M476.118 612.13L474.911 610.537C478.142 608.089 481.325 605.628 484.371 603.219L485.611 604.788C482.554 607.205 479.36 609.675 476.118 612.13ZM494.941 597.231L493.664 595.692C496.791 593.093 499.85 590.482 502.754 587.931L504.075 589.433C501.157 591.997 498.083 594.621 494.941 597.231V597.231ZM512.973 581.362L511.604 579.903C514.589 577.103 517.467 574.3 520.159 571.571L521.582 572.975C518.873 575.722 515.976 578.545 512.973 581.362V581.362ZM529.832 564.221L528.343 562.885C531.085 559.831 533.679 556.771 536.052 553.793L537.617 555.039C535.219 558.047 532.6 561.137 529.832 564.221V564.221ZM544.785 545.354L543.132 544.227C545.457 540.82 547.555 537.419 549.367 534.118L551.121 535.081C549.278 538.437 547.146 541.894 544.785 545.354ZM556.285 524.14L554.423 523.41C555.873 519.75 557.009 515.973 557.819 512.12L559.778 512.522C558.946 516.487 557.777 520.374 556.285 524.14V524.14ZM558.954 500.444C558.895 496.557 558.355 492.692 557.346 488.937L559.278 488.416C560.329 492.33 560.892 496.359 560.954 500.411L558.954 500.444ZM552.971 478.141C551.072 474.711 548.842 471.475 546.315 468.477L547.848 467.194C550.46 470.291 552.763 473.636 554.725 477.18L552.971 478.141ZM538.051 460.037C535.079 457.419 531.966 454.966 528.725 452.689L529.879 451.056C533.18 453.375 536.351 455.874 539.377 458.541L538.051 460.037ZM518.703 446.253C515.431 444.33 511.902 442.411 508.215 440.549L509.116 438.764C512.841 440.644 516.408 442.584 519.716 444.528L518.703 446.253ZM497.406 435.438C493.924 433.891 490.216 432.335 486.384 430.81L487.124 428.953C490.98 430.486 494.712 432.053 498.218 433.61L497.406 435.438ZM475.17 426.559C471.607 425.267 467.797 423.941 463.849 422.618L464.484 420.721C468.448 422.05 472.273 423.381 475.852 424.678L475.17 426.559ZM452.439 418.913C448.954 417.813 445.202 416.656 440.968 415.374L441.548 413.46C445.789 414.744 449.548 415.904 453.04 417.004L452.439 418.913ZM429.46 411.919C425.414 410.709 421.557 409.553 417.945 408.441L418.534 406.529C422.141 407.641 425.992 408.795 430.033 410.003L429.46 411.919ZM406.476 404.732C402.629 403.462 398.866 401.948 395.212 400.198L396.111 398.411C399.686 400.121 403.366 401.601 407.13 402.841L406.476 404.732ZM391.373 391.622L389.947 390.219C391.77 388.367 395.377 386.554 400.973 384.677L401.608 386.574C396.392 388.323 392.948 390.022 391.373 391.622L391.373 391.622ZM413.05 383.316L412.566 381.375C416.025 380.513 419.966 379.612 424.278 378.696L424.693 380.653C420.404 381.563 416.486 382.46 413.05 383.316V383.316ZM436.419 378.297L436.044 376.333C439.729 375.628 443.698 374.899 447.841 374.165L448.191 376.133C444.056 376.867 440.096 377.594 436.419 378.297V378.297ZM459.989 374.102L459.659 372.129C463.427 371.498 467.371 370.852 471.49 370.191L471.806 372.166C467.691 372.826 463.752 373.471 459.989 374.102Z" fill="white"/>
<path id="Vector_55" d="M483.866 370.267L483.559 368.291C485.503 367.99 487.482 367.686 489.495 367.379L489.795 369.356C487.784 369.663 485.807 369.966 483.866 370.267Z" fill="white"/>
<path id="Vector_56" d="M461.608 622.804L460.444 621.177C462.088 620.002 463.708 618.832 465.303 617.669L466.481 619.287C464.879 620.452 463.255 621.624 461.608 622.804Z" fill="white"/>
</g>
<g id="birds">
<path id="Vector_57" d="M528.129 167.119L537.214 159.853C530.156 159.074 527.256 162.923 526.07 165.97C520.556 163.68 514.554 166.681 514.554 166.681L532.731 173.279C531.814 170.83 530.217 168.693 528.129 167.119V167.119Z" fill="#3F3D56"/>
<path id="Vector_58" d="M359.376 223.37L368.46 216.104C361.403 215.325 358.503 219.174 357.316 222.221C351.803 219.931 345.801 222.932 345.801 222.932L363.977 229.531C363.06 227.081 361.464 224.944 359.376 223.37V223.37Z" fill="#3F3D56"/>
<path id="Vector_59" d="M403.785 106.92L412.869 99.6542C405.812 98.8755 402.912 102.725 401.725 105.771C396.211 103.482 390.209 106.482 390.209 106.482L408.386 113.081C407.469 110.632 405.873 108.495 403.785 106.92Z" fill="#3F3D56"/>
</g>
<g id="human">
<path id="Vector_60" d="M502.544 430.442C502.544 430.442 494.675 430.442 493.801 435.25C492.927 440.059 491.615 492.518 492.489 499.075C493.364 505.632 493.364 504.321 493.364 504.321C493.364 504.321 491.621 516.782 495.552 517.327C499.484 517.872 499.484 503.009 499.484 503.009L502.544 449.677V430.442Z" fill="#9E616A"/>
<path id="Vector_61" d="M536.642 430.442C536.642 430.442 544.511 430.442 545.385 435.25C546.259 440.059 547.571 492.518 546.696 499.075C545.822 505.632 545.822 504.321 545.822 504.321C545.822 504.321 547.565 516.782 543.634 517.327C539.702 517.872 539.702 503.009 539.702 503.009L536.642 449.677V430.442Z" fill="#9E616A"/>
<path id="Vector_62" d="M501.233 613.172H497.735C496.702 613.172 495.679 613.375 494.724 613.771C493.769 614.166 492.902 614.746 492.171 615.476C491.441 616.207 490.861 617.074 490.466 618.029C490.07 618.984 489.867 620.007 489.867 621.04V621.04H511.287V610.986H501.233V613.172Z" fill="#2F2E41"/>
<path id="Vector_63" d="M534.893 613.172H538.391C540.477 613.172 542.479 614.001 543.955 615.476C545.43 616.952 546.259 618.953 546.259 621.04V621.04H524.839V610.986H534.893V613.172Z" fill="#2F2E41"/>
<path id="Vector_64" d="M516.096 420.387C522.373 420.387 527.462 415.299 527.462 409.021C527.462 402.744 522.373 397.655 516.096 397.655C509.818 397.655 504.73 402.744 504.73 409.021C504.73 415.299 509.818 420.387 516.096 420.387Z" fill="#9E616A"/>
<path id="Vector_65" d="M513.473 415.141C513.473 415.141 512.161 429.567 510.413 430.879C508.664 432.19 528.773 430.005 528.773 430.005C528.773 430.005 521.779 419.513 523.09 416.016C524.402 412.519 513.473 415.141 513.473 415.141Z" fill="#9E616A"/>
<path id="Vector_66" d="M539.265 430.442C539.265 430.442 515.221 420.387 499.484 430.442C499.484 430.442 495.55 440.496 498.61 446.179C501.67 451.862 506.478 465.414 501.67 474.594C496.861 483.774 502.107 479.84 502.107 479.84C502.107 479.84 495.987 504.321 495.112 523.555C494.238 542.79 497.735 611.86 500.358 612.297C502.981 612.734 511.287 613.609 512.161 612.297C513.036 610.986 519.156 519.621 519.156 519.621C519.156 519.621 521.779 613.172 524.402 613.172C527.025 613.172 534.019 613.172 535.33 610.986C536.642 608.8 547.571 524.43 543.636 506.944C539.702 489.457 537.079 480.714 537.079 480.714C537.079 480.714 541.888 477.654 540.576 475.906C539.265 474.157 532.707 455.36 535.768 452.299C538.828 449.239 539.265 430.442 539.265 430.442Z" fill="#2F2E41"/>
<path id="Vector_67" d="M523.309 420.531C533.449 420.531 541.669 412.311 541.669 402.171C541.669 392.031 533.449 383.811 523.309 383.811C513.169 383.811 504.948 392.031 504.948 402.171C504.948 412.311 513.169 420.531 523.309 420.531Z" fill="#2F2E41"/>
<path id="Vector_68" d="M534.774 392.98C531.68 392.253 528.984 390.362 527.247 387.701C525.509 385.04 524.863 381.812 525.442 378.687C525.389 378.875 525.338 379.064 525.293 379.257C524.545 382.449 525.095 385.808 526.823 388.595C528.55 391.382 531.314 393.369 534.506 394.119C537.698 394.869 541.057 394.321 543.845 392.595C546.633 390.869 548.622 388.107 549.374 384.915C549.419 384.723 549.458 384.53 549.494 384.338C548.621 387.394 546.604 389.996 543.864 391.605C541.123 393.214 537.868 393.707 534.774 392.98V392.98Z" fill="#2F2E41"/>
<path id="Vector_69" d="M535.521 395.372C540.483 395.372 544.506 391.349 544.506 386.387C544.506 381.425 540.483 377.402 535.521 377.402C530.559 377.402 526.536 381.425 526.536 386.387C526.536 391.349 530.559 395.372 535.521 395.372Z" fill="#2F2E41"/>
</g>
</g>
</g>
<defs>
<clipPath id="clip0">
<rect width="885.87" height="622.804" fill="white"/>
</clipPath>
</defs>
</svg>
